# xmcd CD database file
#
# Track frame offsets:
#	150
#	16693
#	32745
#	46906
#	66466
#	82908
#	104342
#	123038
#	138519
#	150172
#	168373
#	183394
#	199624
#	215126
#
# Disc length: 3041 seconds
#
# Revision: 2
# Processed by: cddbd v1.5.1PL0 Copyright (c) Steve Scherf et al.
# Submitted via: CDex 1.51
#
DISCID=b10bdf0e
DTITLE=Natalia - This Time
DYEAR=2004
DGENRE=Pop
TTITLE0=Beautiful Now
TTITLE1=I've Only Begun To Fight
TTITLE2=Do You Wanna Funk
TTITLE3=Never New Love
TTITLE4=This Time
TTITLE5=For Once In My Life
TTITLE6=I Want You Back
TTITLE7=Never Never
TTITLE8=Orange Coloured Sky
TTITLE9=We're All Alone
TTITLE10=Too Late
TTITLE11=The Rose
TTITLE12=Without You
TTITLE13=Higher Than The Sun
EXTD=YEAR: 2004
EXTT0=
EXTT1=
EXTT2=
EXTT3=
EXTT4=
EXTT5=
EXTT6=
EXTT7=
EXTT8=
EXTT9=
EXTT10=
EXTT11=
EXTT12=
EXTT13=
PLAYORDER=
